<?xml version="1.0" encoding="UTF-8"?>
<svg width="43px" height="42px" viewBox="0 0 43 42" version="1.1" xmlns="http://www.w3.org/2000/svg" xmlns:xlink="http://www.w3.org/1999/xlink">
    <!-- Generator: Sketch Beta 44 (41386) - http://www.bohemiancoding.com/sketch -->
    <title>store</title>
    <desc>Created with Sketch Beta.</desc>
    <defs></defs>
    <g id="Page-1" stroke="none" stroke-width="1" fill="none" fill-rule="evenodd">
        <g id="Homepage" transform="translate(-271.000000, -381.000000)">
            <g id="store" transform="translate(272.258621, 382.000000)">
                <ellipse id="Oval-Copy" stroke="#FFFFFF" stroke-width="2" fill="#961F47" cx="20.2241379" cy="19.9205481" rx="20.2241379" ry="19.9205481"></ellipse>
                <path d="M8.08965517,17.6794865 C8.08965517,19.0699252 9.05842298,20.228414 10.3648707,20.5625189 L10.3648707,30.3788359 L8.84806034,30.3788359 C8.4303213,30.3788359 8.08965517,30.7129408 8.08965517,31.1258564 C8.08965517,31.5387721 8.4303687,31.872877 8.84806034,31.872877 L31.6002155,31.872877 C32.0208934,31.872877 32.3586207,31.5387721 32.3586207,31.1258564 C32.3586207,30.7129408 32.0208934,30.3788359 31.6002155,30.3788359 L30.0834052,30.3788359 L30.0834052,20.5625189 C31.3898529,20.228414 32.3586207,19.0699252 32.3586207,17.6794865 L32.3586207,16.9324659 L8.08965517,16.9324659 L8.08965517,17.6794865 Z M23.2577586,20.6675687 C24.9345451,20.6675687 26.2913793,19.3296549 26.2913793,17.6794865 C26.2913793,19.0699252 27.2601471,20.228414 28.5665948,20.5625189 L28.5665948,30.3788359 L17.1905172,30.3788359 L17.1905172,20.6675687 C18.8673037,20.6675687 20.2241379,19.3296549 20.2241379,17.6794865 C20.2241379,19.3296549 21.5839584,20.6675687 23.2577586,20.6675687 Z M16.4321121,20.5625189 L16.4321121,30.3788359 L11.881681,30.3788359 L11.881681,20.5625189 C13.1881761,20.228414 14.1568966,19.0699252 14.1568966,17.6794865 C14.1568966,19.0699252 15.1256644,20.228414 16.4321121,20.5625189 Z M29.325,10.2092809 L11.1232759,10.2092809 L8.08965517,16.1854454 L32.3586207,16.1854454 L29.325,10.2092809 Z M14.4976101,11.8696742 L12.9807997,14.8577564 C12.9126381,14.9890919 12.7793484,15.0649612 12.6400862,15.0649612 C12.5837746,15.0649612 12.526041,15.053289 12.4711989,15.0255559 C12.2845364,14.9336257 12.2075109,14.7089592 12.3023115,14.5250988 L13.8191218,11.5370166 C13.9139225,11.3531561 14.1405434,11.2787809 14.3272059,11.3692171 C14.5153852,11.4611473 14.5894245,11.6858137 14.4976101,11.8696742 Z M17.5312308,11.8696742 L16.0144204,14.8577564 C15.9462588,14.9890919 15.812969,15.0649612 15.6737069,15.0649612 C15.6173953,15.0649612 15.5596617,15.053289 15.5048195,15.0255559 C15.3181571,14.9336257 15.2411315,14.7089592 15.3359322,14.5250988 L16.8527425,11.5370166 C16.9475432,11.3531561 17.1756809,11.2787809 17.3608266,11.3692171 C17.5490059,11.4611473 17.6230452,11.6858137 17.5312308,11.8696742 Z M20.6033405,14.6914042 C20.6033405,14.8986091 20.4345006,15.0649145 20.2241379,15.0649145 C20.0152921,15.0649145 19.8449353,14.8985624 19.8449353,14.6914042 L19.8449353,11.703322 C19.8449353,11.4961172 20.0152921,11.3298117 20.2241379,11.3298117 C20.4345006,11.3298117 20.6033405,11.4961639 20.6033405,11.703322 L20.6033405,14.6914042 Z M24.9582452,15.0182257 C24.8989948,15.0503476 24.8368056,15.0649145 24.774569,15.0649145 C24.6412793,15.0649145 24.5109284,14.9948813 24.4427667,14.8708759 L22.7837554,11.8827937 C22.6830297,11.7018747 22.751144,11.4742668 22.9348676,11.3765005 C23.1156051,11.2772869 23.3496204,11.3414839 23.4503461,11.5238503 L25.1093574,14.5119326 C25.2070969,14.6928516 25.1419215,14.9204594 24.9582452,15.0182257 Z M27.9770296,15.0255092 C27.9237516,15.0532423 27.8674401,15.0649145 27.8081897,15.0649145 C27.6689275,15.0649145 27.5356378,14.9890452 27.4704624,14.8577097 L25.953652,11.8696275 C25.8588514,11.685767 25.9358769,11.4611006 26.122492,11.3691704 C26.3061682,11.2772402 26.5372448,11.3516621 26.6320454,11.5369699 L28.1488558,14.5250521 C28.2407176,14.7089125 28.1666309,14.9336257 27.9770296,15.0255092 Z M14.5360991,26.0105398 L14.5360991,24.2888909 C14.3138864,24.157602 14.1568966,23.9299475 14.1568966,23.6556976 C14.1568966,23.242782 14.4976101,22.908677 14.9153017,22.908677 C15.3359796,22.908677 15.6737069,23.242782 15.6737069,23.6556976 C15.6737069,23.9299942 15.5181864,24.157602 15.2945043,24.2888909 L15.2945043,26.0105398 C15.5181864,26.1418754 15.6737069,26.3694832 15.6737069,26.6437798 C15.6737069,27.0566954 15.3359796,27.3908004 14.9153017,27.3908004 C14.4975627,27.3908004 14.1568966,27.0566954 14.1568966,26.6437798 C14.1568966,26.3694365 14.3139338,26.1418287 14.5360991,26.0105398 Z M11.1232759,8.71523981 C11.1232759,8.30232419 11.4639894,7.96821925 11.881681,7.96821925 L28.5665948,7.96821925 C28.9872727,7.96821925 29.325,8.30232419 29.325,8.71523981 C29.325,9.12815542 28.9872727,9.46226036 28.5665948,9.46226036 L11.881681,9.46226036 C11.4639894,9.46226036 11.1232759,9.12815542 11.1232759,8.71523981 Z M21.382507,24.6667432 L20.8463146,24.138553 L22.9911792,22.0258855 L23.5273717,22.5540757 L21.382507,24.6667432 Z M21.382507,26.7794107 L20.8463146,26.2512205 L25.1360438,22.0258855 L25.6722363,22.5540757 L21.382507,26.7794107 Z M25.1359964,24.1385997 L25.6721889,24.6667899 L23.5273243,26.7794574 L22.9911318,26.2512672 L25.1359964,24.1385997 Z" id="Shape" fill="#FFFFFF" fill-rule="nonzero"></path>
            </g>
        </g>
    </g>
</svg>