<?xml version="1.0" encoding="iso-8859-1"?>
<!-- Generator: Adobe Illustrator 19.0.0, SVG Export Plug-In . SVG Version: 6.00 Build 0)  -->
<svg xmlns="http://www.w3.org/2000/svg" xmlns:xlink="http://www.w3.org/1999/xlink" version="1.1" id="Layer_1" x="0px" y="0px" viewBox="0 0 512 512" style="enable-background:new 0 0 512 512;" xml:space="preserve" width="512px" height="512px">
<g>
	<g>
		<path d="M215.939,376c-0.001,31.251-25.198,56.169-56.169,56.169c-30.971,0-56.169-24.918-56.169-56.169H87.975    c0,39.585,32.207,71.795,71.795,71.795c39.588,0,71.795-32.21,71.795-71.795H215.939z" fill="#2e315b"/>
	</g>
</g>
<g>
	<g>
		<path d="M159.902,272.063c-47.587,0-87.504,40.203-87.504,87.79v7.813h79.17v9.375h15.626v-9.375h80.212v-7.813    C247.406,312.266,207.49,272.063,159.902,272.063z M88.046,352.04c0.321-2.827,0.83-5.604,1.482-8.334h94.333v-15.626H95.267    c11.986-23.696,36.704-40.392,64.502-40.392c27.798,0,52.516,16.697,64.502,40.392h-23.742v15.626h29.48    c0.652,2.729,1.163,5.506,1.482,8.334H88.046z" fill="#2e315b"/>
	</g>
</g>
<g>
	<g>
		<path d="M430.747,272.337v-51.595l-23.959-23.993v-49.053c5.8,7.37,14.797,12.112,25.001,12.112v-15.626    c-9.375,0-16.181-7.259-16.181-16.181c0-8.921,6.805-16.18,16.181-16.18V96.197c-15.201,0-27.73,10.516-30.978,24.584H286.991    v15.626h32.293v8.334h-7.292v15.626h22.918v-23.959h23.959v132.737l-42.816,51.646h-19.686v15.626h27.029l51.099-61.636V136.407    h16.667v66.808l23.959,23.993v13.369h-15.626v15.626h15.626v16.326c-38.618,4.073-70.88,34.388-77.797,72.22h-49.776V228.753    c0-11.321-6.615-21.126-16.183-25.752v-11.202h16.183v-7.813c0-21.948-17.856-39.804-39.804-39.804h-63.796v7.813    c0,18.981,13.359,34.891,31.165,38.848v9.322H175.58v-23.993h-15.995V87.826c0-13.024-10.596-23.621-23.621-23.621H23.621    C10.596,64.206,0,74.802,0,87.826v103.973h119.276v8.415c-12.559,0.485-24.425,6.658-31.992,16.747l-5.994,7.991H39.064v56.301    L0,333.339v26.413h63.797v-15.626H15.626v-5.578l84.159-112.211c4.951-6.602,12.834-10.544,21.086-10.544h138.09    c7.147,0,12.961,5.815,12.961,12.961v3.491h-64.101v15.626h64.102v96.879H255.74v15.626h80.212v7.292h86.462v9.375h15.626v-9.375    H512v-7.813C512,314.541,475.336,275.925,430.747,272.337z M54.69,260.419v-19.841h14.881L54.69,260.419z M15.626,176.174v-63.727    h40.106V96.822H15.626v-8.995c0-4.409,3.587-7.995,7.995-7.995h112.343c4.409,0,7.995,3.587,7.995,7.995v8.995H103.65v15.626    h40.309v63.727H15.626z M159.954,200.166h-25.053v-8.367h25.053V200.166z M255.74,200.166h-25.001v-8.367h25.001V200.166z     M223.751,176.174c-10.599,0-19.627-6.855-22.882-16.365h46.876c10.599,0,19.627,6.855,22.883,16.365H223.751z M351.971,352.04    c0.321-2.827,0.83-5.604,1.482-8.334h95.003v-15.626h-89.264c11.986-23.696,36.704-40.392,64.502-40.392    c27.798,0,52.516,16.697,64.502,40.392H463.04v15.626h30.894c0.652,2.729,1.163,5.506,1.482,8.334H351.971z" fill="#2e315b"/>
	</g>
</g>
<g>
	<g>
		<path d="M175.95,376c0,9.375-7.259,16.18-16.18,16.18c-8.922,0-16.181-6.804-16.181-16.18h-15.626    c0,17.709,14.268,31.805,31.806,31.805c17.537,0,31.805-14.096,31.805-31.805H175.95z" fill="#2e315b"/>
	</g>
</g>
<g>
	<g>
		<path d="M447.871,376c0,9.375-7.259,16.18-16.18,16.18c-8.922,0-16.181-6.804-16.181-16.18h-15.626    c0,17.709,14.268,31.805,31.807,31.805c17.538,0,31.805-14.096,31.805-31.805H447.871z" fill="#2e315b"/>
	</g>
</g>
<g>
	<g>
		<rect x="63.023" y="96.816" width="33.335" height="15.626" fill="#2e315b"/>
	</g>
</g>
<g>
	<g>
		<path d="M487.86,376c0,31.251-25.197,56.169-56.169,56.169c-30.971,0-56.169-24.918-56.169-56.169h-15.626    c0,39.585,32.207,71.795,71.795,71.795c39.588,0,71.795-32.21,71.795-71.795H487.86z" fill="#2e315b"/>
	</g>
</g>
<g>
	<g>
		<rect x="439.08" y="95.775" width="15.626" height="64.586" fill="#2e315b"/>
	</g>
</g>
<g>
	<g>
		<rect x="167.194" y="232.239" width="33.335" height="15.626" fill="#2e315b"/>
	</g>
</g>
<g>
	<g>
		<rect x="334.909" y="232.239" width="15.626" height="23.959" fill="#2e315b"/>
	</g>
</g>
<g>
	<g>
		<rect x="15.105" y="223.905" width="15.626" height="32.293" fill="#2e315b"/>
	</g>
</g>
<g>
</g>
<g>
</g>
<g>
</g>
<g>
</g>
<g>
</g>
<g>
</g>
<g>
</g>
<g>
</g>
<g>
</g>
<g>
</g>
<g>
</g>
<g>
</g>
<g>
</g>
<g>
</g>
<g>
</g>
</svg>
