<?xml version="1.0" encoding="UTF-8"?>
<svg width="34px" height="33px" viewBox="0 0 34 33" version="1.1" xmlns="http://www.w3.org/2000/svg" xmlns:xlink="http://www.w3.org/1999/xlink">
    <!-- Generator: Sketch Beta 45 (43276) - http://www.bohemiancoding.com/sketch -->
    <title>facebook-logo-in-circular-button-outlined-social-symbol</title>
    <desc>Created with Sketch Beta.</desc>
    <defs></defs>
    <g id="Page-1" stroke="none" stroke-width="1" fill="none" fill-rule="evenodd">
        <g id="Shop" transform="translate(-787.000000, -841.000000)" fill-rule="nonzero" fill="#2E315B">
            <g id="facebook-logo-in-circular-button-outlined-social-symbol" transform="translate(787.000000, 841.000000)">
                <g id="Capa_1">
                    <g id="Group">
                        <path d="M33.6287857,16.5 C33.6287857,7.38747059 26.1004984,0 16.8143928,0 C7.52823227,0 0,7.38747059 0,16.5 C0,25.6124755 7.52823227,33 16.8143928,33 C26.1004984,33 33.6287857,25.6124755 33.6287857,16.5 Z M1.52857118,16.5 C1.52857118,8.2154902 8.37202906,1.4999902 16.8143928,1.4999902 C25.2567566,1.4999902 32.1002145,8.2154902 32.1002145,16.5 C32.1002145,24.7845098 25.2567566,31.5000098 16.8143928,31.5000098 C8.37202906,31.5000098 1.52857118,24.7845098 1.52857118,16.5 Z" id="Shape"></path>
                        <path d="M17.5500326,25.9687949 L17.5500326,16.4453292 L20.7524052,16.4453292 L21.2583755,13.2893537 L17.5500326,13.2893537 L17.5500326,11.7068635 C17.5500326,10.8833733 17.8251623,10.0973586 19.0296992,10.0973586 L21.4371796,10.0973586 L21.4371796,6.94736842 L18.0192971,6.94736842 C15.1455745,6.94736842 14.3613973,8.8043194 14.3613973,11.3783733 L14.3613973,13.2878978 L12.3895526,13.2878978 L12.3895526,16.4453292 L14.3613973,16.4453292 L14.3613973,25.9687949 L17.5500326,25.9687949 L17.5500326,25.9687949 Z" id="Shape"></path>
                    </g>
                </g>
            </g>
        </g>
    </g>
</svg>