<?xml version="1.0" encoding="UTF-8"?>
<svg width="29px" height="29px" viewBox="0 0 29 29" version="1.1" xmlns="http://www.w3.org/2000/svg" xmlns:xlink="http://www.w3.org/1999/xlink">
    <!-- Generator: Sketch Beta 44 (41386) - http://www.bohemiancoding.com/sketch -->
    <title>airplane (6)</title>
    <desc>Created with Sketch Beta.</desc>
    <defs></defs>
    <g id="Page-1" stroke="none" stroke-width="1" fill="none" fill-rule="evenodd">
        <g id="Homepage" transform="translate(-96.000000, -1097.000000)" fill-rule="nonzero">
            <g id="airplane-(6)" transform="translate(96.000000, 1097.000000)">
                <path d="M25.6596115,9.31728477 L17.7285034,9.31728477 C15.928152,9.31728477 14.4627703,7.85984819 14.4627703,6.06925819 C14.4627703,4.27866819 15.928152,2.82123162 17.7285034,2.82123162 C17.9072061,2.82123162 18.0849291,2.835653 18.2603986,2.86439832 C18.9107432,1.17963009 20.5511047,0.0372227568 22.3938784,0.0372227568 C24.2567365,0.0372227568 25.9320743,1.2209454 26.5605709,2.94751615 C27.9462027,3.34196044 28.9254426,4.61279603 28.9254426,6.06935563 C28.9253446,7.85984819 27.4599628,9.31728477 25.6596115,9.31728477 Z" id="Shape" fill="#FFFFFF"></path>
                <path d="M28.2638311,15.1977008 C26.6323851,14.3861083 24.8053851,13.9573645 22.9812264,13.9573645 L17.0986351,13.9573645 L11.8113277,10.2453202 L7.27145608,10.2453202 L11.0037365,13.9573645 L7.17534459,13.9573645 L2.97651689,10.2453202 L0.215050676,10.2453202 L2.06350676,14.3824055 L1.39964189,14.4924173 L1.39964189,16.0519728 L1.69777365,16.2640061 C3.84661486,17.7906263 6.37853041,18.5975417 9.01919595,18.5975417 L10.0707399,18.5975417 L6.65706757,21.9926079 L7.13390203,22.3057857 C7.28272297,22.4037147 7.42311824,22.5164548 7.55097297,22.6407905 L7.68715541,22.7735062 L10.4121757,22.7735062 L16.3605068,18.5974442 L22.8640507,18.5974442 C24.4731588,18.5974442 26.0388649,18.2777378 27.517277,17.6475818 L28.2002466,17.3566207 C28.6406351,17.1682658 28.9252466,16.7390347 28.9252466,16.262447 C28.9253446,15.8087582 28.6719865,15.4008669 28.2638311,15.1977008 Z M9.52385473,11.1733556 L11.5155473,11.1733556 L15.4811014,13.9573645 L12.3231385,13.9573645 L9.52385473,11.1733556 Z M1.65104054,11.1733556 L2.6219527,11.1733556 L5.77109797,13.9573645 L5.12868919,13.9573645 C4.79558108,13.9573645 4.46012162,13.9852328 4.13171622,14.0395079 L3.01433446,14.2246473 L1.65104054,11.1733556 Z M27.83275,16.5034205 L27.1497804,16.7943817 C25.7874662,17.3753295 24.3463818,17.6695062 22.8641486,17.6695062 L17.6823581,17.6695062 L18.4642804,17.1206167 L17.9259189,16.3624223 L10.1161014,21.8455682 L8.12431081,21.8455682 L12.9263581,17.0695572 L12.2667061,16.4134818 L11.0038345,17.6695062 L9.01909797,17.6695062 C6.61219595,17.6695062 4.302875,16.9452215 2.33263851,15.5740209 L2.33263851,15.27848 L4.28514189,14.9545836 C4.56318919,14.9086885 4.84731081,14.8853999 5.12868919,14.8853999 L22.9812264,14.8853999 C24.6616588,14.8853999 26.3440507,15.280234 27.8462703,16.02732 C27.9363074,16.0723381 27.99225,16.1623743 27.99225,16.2625445 C27.99225,16.3673918 27.9292534,16.4621052 27.83275,16.5034205 Z" id="Shape" fill="#FFFFFF"></path>
                <path d="M8.39765541,28.3416214 L2.79918581,28.3416214 C1.25542568,28.3416214 0,27.0930025 0,25.5576125 C0,24.1944021 1.00912162,23.039912 2.34253378,22.8213501 C2.99846284,21.6567261 4.24830405,20.9175328 5.59846959,20.9175328 C7.37227027,20.9175328 8.89134122,22.1652747 9.24864865,23.8658285 C10.1351081,24.2097005 10.7303919,25.0559823 10.7303919,26.0216302 C10.7303919,27.3008458 9.68394257,28.3416214 8.39765541,28.3416214 Z" id="Shape" fill="#FFFFFF"></path>
                <rect id="Rectangle-path" fill="#FFFFFF" x="15.8623142" y="23.7015417" width="9.33075" height="1"></rect>
                <rect id="Rectangle-path" fill="#333333" x="13.996125" y="23.7015417" width="1" height="1"></rect>
                <rect id="Rectangle-path" fill="#FFFFFF" x="4.1988277" y="3.28515189" width="7.46456081" height="1"></rect>
                <rect id="Rectangle-path" fill="#333333" x="2.33273649" y="3.28515189" width="1" height="1"></rect>
                <rect id="Rectangle-path" fill="#FFFFFF" x="2.33273649" y="5.60524047" width="6.99811149" height="1"></rect>
                <rect id="Rectangle-path" fill="#333333" x="0.466547297" y="5.60524047" width="1" height="1"></rect>
            </g>
        </g>
    </g>
</svg>