<?xml version="1.0" encoding="UTF-8"?>
<svg width="34px" height="33px" viewBox="0 0 34 33" version="1.1" xmlns="http://www.w3.org/2000/svg" xmlns:xlink="http://www.w3.org/1999/xlink">
    <!-- Generator: Sketch Beta 45 (43276) - http://www.bohemiancoding.com/sketch -->
    <title>instagram</title>
    <desc>Created with Sketch Beta.</desc>
    <defs></defs>
    <g id="Page-1" stroke="none" stroke-width="1" fill="none" fill-rule="evenodd">
        <g id="Shop" transform="translate(-909.000000, -841.000000)" fill-rule="nonzero" fill="#2E315B">
            <g id="instagram" transform="translate(909.000000, 841.000000)">
                <g id="Capa_1">
                    <g id="Group">
                        <path d="M16.7958169,0 C7.53455612,0 0,7.39367619 0,16.4817714 C0,25.5698667 7.53455612,32.9635429 16.7958169,32.9635429 C26.0570777,32.9635429 33.5916339,25.5698667 33.5916339,16.4817714 C33.5916339,7.39367619 26.0570777,0 16.7958169,0 Z M16.8143928,31.2631579 C8.51891787,31.2631579 1.76993609,24.6403675 1.76993609,16.5 C1.76993609,8.3596325 8.51891787,1.73684211 16.8143928,1.73684211 C25.1098678,1.73684211 31.8588496,8.3596325 31.8588496,16.5 C31.8588496,24.6403675 25.1098678,31.2631579 16.8143928,31.2631579 Z" id="Shape"></path>
                        <path d="M23.1108477,8.68421053 L10.8780834,8.68421053 C9.75957929,8.68421053 8.84968044,9.57709624 8.84968044,10.6746867 L8.84968044,22.8270677 C8.84968044,23.9246581 9.75957929,24.8175439 10.8780834,24.8175439 L23.1108477,24.8175439 C24.2293518,24.8175439 25.1392507,23.9246581 25.1392507,22.8270677 L25.1392507,10.6746867 C25.1392507,9.577201 24.2293518,8.68421053 23.1108477,8.68421053 Z M23.2176058,22.8270677 C23.2176058,22.8848962 23.1697782,22.9318296 23.1108477,22.9318296 L10.8780834,22.9318296 C10.8191529,22.9318296 10.7713253,22.8848962 10.7713253,22.8270677 L10.7713253,10.6746867 C10.7713253,10.6168581 10.8191529,10.5699248 10.8780834,10.5699248 L23.1108477,10.5699248 C23.1697782,10.5699248 23.2176058,10.6168581 23.2176058,10.6746867 L23.2176058,22.8270677 Z" id="Shape"></path>
                        <rect id="Rectangle-path" x="20.0592757" y="11.5789474" width="2.20081719" height="1.98115238"></rect>
                        <ellipse id="Oval" cx="16.919218" cy="17.1818125" rx="2.1697506" ry="2.12918095"></ellipse>
                        <path d="M20.2643129,17.1448647 C20.2643129,19.0205218 18.7148266,20.5410361 16.8034305,20.5410361 C14.8920343,20.5410361 13.342548,19.0205218 13.342548,17.1448647 L13.3472454,15.6315789 L11.7995739,15.6315789 L11.7995739,21.2636837 L21.8073938,21.2636837 L21.8073938,15.6315789 L20.2723198,15.6315789 L20.2643129,17.1448647 Z" id="Shape"></path>
                    </g>
                </g>
            </g>
        </g>
    </g>
</svg>