<?xml version="1.0" encoding="iso-8859-1"?>
<!-- Generator: Adobe Illustrator 19.0.0, SVG Export Plug-In . SVG Version: 6.00 Build 0)  -->
<svg xmlns="http://www.w3.org/2000/svg" xmlns:xlink="http://www.w3.org/1999/xlink" version="1.1" id="Capa_1" x="0px" y="0px" viewBox="0 0 480 480" style="enable-background:new 0 0 480 480;" xml:space="preserve" width="512px" height="512px">
<path id="XMLID_1409_" d="M326.544,133.974c-0.857-5.456,2.869-10.574,8.325-11.433c5.458-0.849,10.574,2.869,11.433,8.325  l4.692,29.837c0.857,5.456-2.869,10.574-8.325,11.433c-0.526,0.082-1.05,0.123-1.566,0.123c-4.838,0-9.091-3.519-9.866-8.448  L326.544,133.974z M96.235,160.335c0.523,0,1.055-0.042,1.588-0.127l98.77-15.752c5.454-0.869,9.17-5.996,8.3-11.45  c-0.869-5.453-6.001-9.168-11.45-8.3l-98.77,15.752c-5.454,0.869-9.17,5.996-8.3,11.45  C87.157,156.828,91.407,160.335,96.235,160.335z M480,238.611v171.181C480,431.962,462.056,450,440,450H40  c-22.056,0-40-18.038-40-40.209V238.611c0-19.782,14.288-36.274,33.034-39.597l-12.183-77.458  c-2.581-16.403,8.603-31.867,24.93-34.469L401.349,30.38c7.89-1.261,15.807,0.638,22.283,5.344  c6.518,4.735,10.798,11.738,12.053,19.719l23.238,147.75C471.46,209.99,480,223.317,480,238.611z M40.609,118.447l12.574,79.956H210  c5.522,0,10,4.477,10,10v10.069c0,5.543,2.178,10.715,6.131,14.56c3.894,3.787,9.008,5.8,14.437,5.641  c10.715-0.296,19.433-9.641,19.433-20.83v-9.44c0-5.522,4.478-10,10-10h167.924L415.927,58.55c-0.424-2.695-1.862-5.056-4.051-6.645  c-2.146-1.561-4.763-2.19-7.377-1.774l-69.162,11.03l3.144,19.979c0.857,5.456-2.869,10.574-8.325,11.433  c-5.457,0.851-10.575-2.869-11.433-8.325l-3.136-19.937L48.931,106.835C43.471,107.706,39.738,112.915,40.609,118.447z M460,238.611  c0-8.831-5.636-16.357-13.464-19.1c-0.156-0.048-0.311-0.1-0.463-0.155c-1.916-0.618-3.957-0.952-6.073-0.952H279.996  c-0.295,21.668-17.621,39.675-38.877,40.262c-10.858,0.324-21.136-3.712-28.934-11.297C204.327,239.724,200,229.462,200,218.472  v-0.069H44.792c-0.112,0.001-0.226,0.001-0.342,0H40c-11.028,0-20,9.065-20,20.208v171.181C20,420.935,28.972,430,40,430h400  c11.028,0,20-9.065,20-20.209V238.611z M400,283.993h-70c-5.522,0-10,4.477-10,10s4.478,10,10,10h70c5.522,0,10-4.478,10-10  S405.522,283.993,400,283.993z M190,324.201c0,5.522-4.478,10-10,10h-12.729c-0.887,3.336-2.207,6.497-3.895,9.417l9.075,9.138  c3.892,3.919,3.869,10.251-0.049,14.142c-3.918,3.892-10.25,3.869-14.143-0.049l-9.002-9.065c-2.874,1.671-5.98,2.98-9.258,3.865  v12.899c0,5.522-4.478,10-10,10s-10-4.477-10-10v-12.899c-3.277-0.885-6.384-2.194-9.258-3.865l-9.002,9.065  c-3.893,3.918-10.223,3.939-14.143,0.049c-3.918-3.892-3.94-10.224-0.049-14.142l9.075-9.138c-1.688-2.92-3.008-6.081-3.895-9.417  H80c-5.522,0-10-4.477-10-10c0-5.522,4.478-10,10-10h12.729c0.887-3.336,2.207-6.497,3.895-9.417l-9.075-9.138  c-3.892-3.919-3.869-10.251,0.049-14.142c3.919-3.891,10.251-3.868,14.143,0.049l9.002,9.065c2.873-1.672,5.98-2.981,9.258-3.866  v-12.898c0-5.522,4.478-10,10-10s10,4.478,10,10v12.898c3.277,0.885,6.385,2.194,9.258,3.866l9.002-9.065  c3.894-3.918,10.223-3.939,14.143-0.049c3.918,3.892,3.94,10.224,0.049,14.142l-9.075,9.138c1.688,2.92,3.008,6.081,3.895,9.417H180  C185.522,314.202,190,318.679,190,324.201z M148.571,324.201c0-10.349-8.331-18.77-18.571-18.77s-18.571,8.421-18.571,18.77  c0,10.35,8.331,18.769,18.571,18.769S148.571,334.551,148.571,324.201z M400,344.41h-70c-5.522,0-10,4.477-10,10  c0,5.522,4.478,10,10,10h70c5.522,0,10-4.477,10-10C410,348.888,405.522,344.41,400,344.41z" fill="#2e315b"/>
<g>
</g>
<g>
</g>
<g>
</g>
<g>
</g>
<g>
</g>
<g>
</g>
<g>
</g>
<g>
</g>
<g>
</g>
<g>
</g>
<g>
</g>
<g>
</g>
<g>
</g>
<g>
</g>
<g>
</g>
</svg>
