<?xml version="1.0" encoding="UTF-8"?>
<svg width="42px" height="41px" viewBox="0 0 42 41" version="1.1" xmlns="http://www.w3.org/2000/svg" xmlns:xlink="http://www.w3.org/1999/xlink">
    <!-- Generator: Sketch Beta 44 (41386) - http://www.bohemiancoding.com/sketch -->
    <title>airplane (2)</title>
    <desc>Created with Sketch Beta.</desc>
    <defs></defs>
    <g id="Page-1" stroke="none" stroke-width="1" fill="none" fill-rule="evenodd">
        <g id="Homepage" transform="translate(-94.000000, -381.000000)">
            <g id="airplane-(2)" transform="translate(95.000000, 382.000000)">
                <ellipse id="Oval" stroke="#FFFFFF" stroke-width="2" fill="#961F47" cx="19.6293103" cy="19.3346497" rx="19.6293103" ry="19.3346497"></ellipse>
                <rect id="Rectangle-path" fill="#FFFFFF" fill-rule="nonzero" transform="translate(9.681779, 20.278595) rotate(77.484243) translate(-9.681779, -20.278595) " x="9.08561601" y="19.6917652" width="1" height="1"></rect>
                <path d="M30.3146204,18.5574903 L30.3146204,16.3876748 L27.3227336,16.3876748 L27.3227336,16.9614929 L22.6211972,14.4531964 L22.6211972,11.1647934 C22.6211972,10.9715561 22.6015362,10.7774767 22.5630691,10.5867654 L22.0929154,8.27339014 C21.8591208,7.12028099 20.8230732,6.28376114 19.6293103,6.28376114 C18.4355475,6.28376114 17.3994998,7.12028099 17.1652778,8.27339014 L16.6951242,10.5871864 C16.6570845,10.7774767 16.6374235,10.9715561 16.6374235,11.1647934 L16.6374235,14.4531964 L11.9358871,16.9614929 L11.9358871,16.3876748 L8.94400028,16.3876748 L8.94400028,18.5574903 L6.37952586,19.9257286 L6.37952586,22.2816245 L7.27110813,22.2816245 L16.6374235,20.6772072 L16.6374235,24.0102357 C16.6374235,25.0383089 16.7972758,26.0533313 17.0968919,27.0355159 L12.7907119,30.063743 L12.7907119,32.3855382 L13.6981084,32.3855382 L18.494103,31.2042223 L18.8937336,32.3855382 L20.3644597,32.3855382 L20.7640903,31.2042223 L25.5092228,32.3729083 L26.4679088,32.3855382 L26.4679088,30.063743 L22.1617288,27.0350949 C22.4613449,26.0529103 22.6211972,25.0383089 22.6211972,24.0098147 L22.6211972,20.6767862 L31.9511825,22.2748885 L32.8790948,22.2816245 L32.8790948,19.9257286 L30.3146204,18.5574903 Z M9.79882508,17.2296676 L11.0810623,17.2296676 L11.0810623,17.417432 L9.79882508,18.1015512 L9.79882508,17.2296676 Z M16.6374235,18.1545967 L10.9883138,19.3910632 L11.1738108,20.2132691 L16.6374235,19.0176394 L16.6374235,19.8225845 L7.23435067,21.4333167 L7.23435067,20.4271353 L16.6374235,15.4101212 L16.6374235,18.1545967 Z M13.6455367,31.5304945 L13.6455367,30.4973693 L17.3687261,27.8787717 L18.2231235,30.4039081 L13.6455367,31.5304945 Z M19.7485584,31.5435454 L19.5096349,31.5435454 L17.996595,27.0717216 C17.6619311,26.082801 17.4922483,25.0526228 17.4922483,24.0098147 L17.4922483,11.1647934 C17.4922483,11.0267066 17.5059255,10.8877778 17.5337073,10.752217 L18.003861,8.43884173 C18.1581569,7.67810123 18.8415893,7.12575394 19.6293103,7.12575394 C20.4170314,7.12575394 21.1004638,7.67810123 21.2551871,8.43842073 L21.7253408,10.751375 C21.7526952,10.8877778 21.7663724,11.0267066 21.7663724,11.1647934 L21.7663724,24.0102357 C21.7663724,25.0530438 21.5966896,26.083222 21.2620257,27.0717216 L19.7485584,31.5435454 Z M25.613084,30.4973693 L25.613084,31.5304945 L21.0354971,30.4034871 L21.8898945,27.8783507 L25.613084,30.4973693 Z M28.1775584,17.2296676 L29.4597956,17.2296676 L29.4597956,18.1015512 L28.1775584,17.417432 L28.1775584,17.2296676 Z M32.02427,21.4333167 L22.6211972,19.8225845 L22.6211972,19.0176394 L28.0848099,20.2136901 L28.2703069,19.3914842 L22.6211972,18.1550177 L22.6211972,15.4105422 L32.02427,20.4275563 L32.02427,21.4333167 Z" id="Shape" fill="#FFFFFF" fill-rule="nonzero"></path>
                <rect id="Rectangle-path" fill="#FFFFFF" fill-rule="nonzero" transform="translate(29.579599, 20.278036) rotate(12.526943) translate(-29.579599, -20.278036) " x="28.9832226" y="19.6912354" width="1" height="1"></rect>
            </g>
        </g>
    </g>
</svg>