<?xml version="1.0" encoding="UTF-8"?>
<svg width="34px" height="33px" viewBox="0 0 34 33" version="1.1" xmlns="http://www.w3.org/2000/svg" xmlns:xlink="http://www.w3.org/1999/xlink">
    <!-- Generator: Sketch Beta 45 (43276) - http://www.bohemiancoding.com/sketch -->
    <title>twitter-circular-button</title>
    <desc>Created with Sketch Beta.</desc>
    <defs></defs>
    <g id="Page-1" stroke="none" stroke-width="1" fill="none" fill-rule="evenodd">
        <g id="Shop" transform="translate(-848.000000, -841.000000)" fill-rule="nonzero" fill="#2E315B">
            <g id="twitter-circular-button" transform="translate(848.000000, 841.000000)">
                <g id="Capa_1" transform="translate(-0.000000, 0.000000)">
                    <g id="Group">
                        <path d="M23.932428,13.0197072 C23.932428,12.8531974 23.9293508,12.6881974 23.9217129,12.5247072 C24.6478089,11.9936876 25.2775794,11.3292121 25.7759118,10.5687023 C25.1094355,10.8627366 24.3940545,11.0592268 23.6419676,11.1416729 C24.4093303,10.6781631 24.997834,9.93717287 25.2760408,9.04768267 C24.5575827,9.47517287 23.7627455,9.78117777 22.9174101,9.94019248 C22.2402736,9.18415816 21.2742153,8.70269248 20.2056771,8.68468267 C18.1543212,8.65168267 16.4912349,10.3526925 16.4912349,12.4841582 C16.4912349,12.7871435 16.5233251,13.0811778 16.5875055,13.3646435 C13.498273,13.1696631 10.7606041,11.5916484 8.92931888,9.21268267 C8.60984542,9.78268758 8.42642567,10.4486729 8.42642567,11.1627023 C8.42642567,12.5127366 9.08218699,13.7127072 10.0787969,14.4206974 C9.46891803,14.3937366 8.89722867,14.2122366 8.39587403,13.9151827 L8.39587403,13.9646827 C8.39587403,15.8517219 9.67684503,17.4327023 11.3765823,17.8016876 C11.0647468,17.8886631 10.7360968,17.9336876 10.3982704,17.9322317 C10.1583081,17.9307219 9.92592883,17.905217 9.69970381,17.8571729 C10.1720454,19.4036974 11.5447263,20.5331925 13.1695681,20.570668 C11.8977736,21.6056386 10.2958455,22.2236337 8.5563251,22.2191582 C8.25668822,22.2191582 7.96018344,22.1996925 7.66972305,22.1636729 C9.31451135,23.2706827 11.2664645,23.9156386 13.3651865,23.9156386 C20.1965007,23.9172023 23.932428,18.0821876 23.932428,13.0197072 Z" id="Shape"></path>
                        <path d="M33.6287857,16.5 C33.6287857,7.38747059 26.1004984,0 16.8143928,0 C7.52823227,0 0,7.38747059 0,16.5 C0,25.6124755 7.52823227,33 16.8143928,33 C26.1004984,33 33.6287857,25.6124755 33.6287857,16.5 Z M1.52857118,16.5 C1.52857118,8.2154902 8.37202906,1.4999902 16.8143928,1.4999902 C25.2567566,1.4999902 32.1002145,8.2154902 32.1002145,16.5 C32.1002145,24.7845098 25.2567566,31.5000098 16.8143928,31.5000098 C8.37202906,31.5000098 1.52857118,24.7845098 1.52857118,16.5 Z" id="Shape"></path>
                    </g>
                </g>
            </g>
        </g>
    </g>
</svg>