<?xml version="1.0" encoding="iso-8859-1"?>
<!-- Generator: Adobe Illustrator 19.0.0, SVG Export Plug-In . SVG Version: 6.00 Build 0)  -->
<svg xmlns="http://www.w3.org/2000/svg" xmlns:xlink="http://www.w3.org/1999/xlink" version="1.1" id="Layer_1" x="0px" y="0px" viewBox="0 0 512 512" style="enable-background:new 0 0 512 512;" xml:space="preserve" width="512px" height="512px">
<g>
	<g>
		<path d="M367.165,290.739h-222.33c-13.851,0-25.119,11.268-25.119,25.119v136.818c0,13.851,11.268,25.119,25.119,25.119h222.33    c13.851,0,25.119-11.268,25.119-25.119V315.858C392.284,302.007,381.016,290.739,367.165,290.739z M376.251,452.676    c0,5.01-4.076,9.086-9.086,9.086h-222.33c-5.01,0-9.086-4.076-9.086-9.086V315.858c0-5.01,4.076-9.086,9.086-9.086h222.33    c5.01,0,9.086,4.076,9.086,9.086V452.676z" fill="#2e315b"/>
	</g>
</g>
<g>
	<g>
		<path d="M350.063,342.046H161.937c-4.427,0-8.017,3.589-8.017,8.017s3.589,8.017,8.017,8.017H299.29v10.939    c-9.93,3.354-17.102,12.752-17.102,23.8c0,13.851,11.268,25.119,25.119,25.119c13.851,0,25.119-11.268,25.119-25.119    c0-11.048-7.172-20.446-17.102-23.8v-10.939h34.739c4.427,0,8.017-3.589,8.017-8.017S354.49,342.046,350.063,342.046z     M316.393,392.818c0,5.01-4.076,9.086-9.086,9.086c-5.01,0-9.086-4.076-9.086-9.086c0-5.01,4.076-9.086,9.086-9.086    C312.317,383.733,316.393,387.808,316.393,392.818z" fill="#2e315b"/>
	</g>
</g>
<g>
	<g>
		<path d="M444.125,290.739h-9.086V161.937c0-14.813-3.003-29.249-8.562-42.548c0.002-0.069,0.011-0.138,0.011-0.207V16.568    C426.489,7.432,419.057,0,409.921,0h-34.205c-9.136,0-16.568,7.432-16.568,16.568v34.753c-0.179-0.003-0.355-0.014-0.534-0.014    h-34.739V33.67c0-18.566-15.105-33.67-33.67-33.67h-68.409c-18.566,0-33.67,15.105-33.67,33.67v17.637h-34.739    c-0.18,0-0.356,0.01-0.534,0.014V16.568C152.852,7.432,145.42,0,136.284,0h-34.205c-9.136,0-16.568,7.432-16.568,16.568v102.614    c0,0.069,0.009,0.137,0.011,0.206c-5.559,13.299-8.562,27.736-8.562,42.549v128.802h-9.086c-13.851,0-25.119,11.268-25.119,25.119    v136.818c0,13.851,11.268,25.119,25.119,25.119h9.858C81.49,497.255,98.642,512,119.182,512h273.637    c20.54,0,37.691-14.745,41.448-34.205h9.858c13.851,0,25.119-11.268,25.119-25.119V315.858    C469.244,302.007,457.976,290.739,444.125,290.739z M76.96,461.762h-9.086c-5.01,0-9.086-4.076-9.086-9.086v-94.597H76.96V461.762    z M76.96,342.046H58.789v-26.188c0-5.01,4.076-9.086,9.086-9.086h9.086V342.046z M375.182,16.568c0-0.295,0.239-0.534,0.534-0.534    h34.205c0.295,0,0.534,0.239,0.534,0.534v75.916c-7.859-9.76-17.405-18.24-28.351-24.946c-1.469-3.869-3.867-7.282-6.922-9.97    V16.568z M204.159,33.67c0-9.725,7.912-17.637,17.637-17.637h68.409c9.725,0,17.637,7.912,17.637,17.637v17.637H204.159V33.67z     M144.301,76.426c0-5.01,4.076-9.086,9.086-9.086h205.228c5.01,0,9.086,4.076,9.086,9.086v85.511    c0,42.731-34.764,77.495-77.495,77.495h-9.086v-26.188c0-4.427-3.589-8.017-8.017-8.017h-34.205c-4.427,0-8.017,3.589-8.017,8.017    v26.188h-9.086c-42.731,0-77.495-34.764-77.495-77.495V76.426z M265.086,221.261v26.177c0,0.003,0,0.006,0,0.011    c0,0.002,0,0.003,0,0.005c-0.003,5.008-4.077,9.08-9.086,9.08c-5.01,0-9.086-4.076-9.086-9.086v-26.188H265.086z M101.545,16.568    c0-0.295,0.239-0.534,0.534-0.534h34.205c0.295,0,0.534,0.239,0.534,0.534v41.001c-3.055,2.687-5.453,6.1-6.922,9.97    c-10.947,6.706-20.493,15.186-28.351,24.946V16.568z M419.006,469.779c0,14.44-11.748,26.188-26.188,26.188H119.182    c-14.44,0-26.188-11.748-26.188-26.188V161.937c0-28.758,13.233-55.853,35.274-73.665v73.665    c0,51.572,41.956,93.528,93.528,93.528H232.2c3.354,9.93,12.752,17.102,23.8,17.102s20.446-7.172,23.8-17.102h10.405    c51.572,0,93.528-41.956,93.528-93.528V88.272c22.041,17.812,35.273,44.907,35.273,73.665V469.779z M453.211,452.676    c0,5.01-4.076,9.086-9.086,9.086h-9.086V358.079h18.171V452.676z M453.211,342.046H435.04v-35.273h9.086    c5.01,0,9.086,4.076,9.086,9.086V342.046z" fill="#2e315b"/>
	</g>
</g>
<g>
</g>
<g>
</g>
<g>
</g>
<g>
</g>
<g>
</g>
<g>
</g>
<g>
</g>
<g>
</g>
<g>
</g>
<g>
</g>
<g>
</g>
<g>
</g>
<g>
</g>
<g>
</g>
<g>
</g>
</svg>
