<?xml version="1.0" encoding="UTF-8"?>
<svg width="26px" height="31px" viewBox="0 0 26 31" version="1.1" xmlns="http://www.w3.org/2000/svg" xmlns:xlink="http://www.w3.org/1999/xlink">
    <!-- Generator: Sketch Beta 43.1 (39012) - http://www.bohemiancoding.com/sketch -->
    <title>backpack</title>
    <desc>Created with Sketch Beta.</desc>
    <defs></defs>
    <g id="Page-1" stroke="none" stroke-width="1" fill="none" fill-rule="evenodd">
        <g id="Home-Page---About-Copy" transform="translate(-1213.000000, -48.000000)" fill-rule="nonzero" fill="#FFFFFF">
            <g id="Group-3" transform="translate(1195.000000, 39.000000)">
                <g id="backpack" transform="translate(18.000000, 9.000000)">
                    <path d="M19.753014,17.6033379 L6.24698598,17.6033379 C5.40557009,17.6033379 4.72106542,18.2855801 4.72106542,19.1242148 L4.72106542,27.4081172 C4.72106542,28.246752 5.40557009,28.9289941 6.24698598,28.9289941 L19.753014,28.9289941 C20.5944299,28.9289941 21.2789346,28.246752 21.2789346,27.4081172 L21.2789346,19.1242148 C21.2789346,18.2855801 20.5944299,17.6033379 19.753014,17.6033379 Z M20.3049673,27.4081172 C20.3049673,27.711457 20.0573598,27.9582461 19.753014,27.9582461 L6.24698598,27.9582461 C5.94264019,27.9582461 5.69503271,27.711457 5.69503271,27.4081172 L5.69503271,19.1242148 C5.69503271,18.820875 5.94264019,18.5740859 6.24698598,18.5740859 L19.753014,18.5740859 C20.0573598,18.5740859 20.3049673,18.820875 20.3049673,19.1242148 L20.3049673,27.4081172 Z" id="Shape"></path>
                    <path d="M18.7141075,20.7098164 L7.28589252,20.7098164 C7.01696262,20.7098164 6.7988785,20.9271191 6.7988785,21.1952207 C6.7988785,21.4633223 7.01690187,21.680625 7.28589252,21.680625 L15.6297664,21.680625 L15.6297664,22.3429473 C15.0265421,22.5460215 14.5908598,23.115041 14.5908598,23.7839629 C14.5908598,24.6225977 15.2753645,25.3048398 16.1167804,25.3048398 C16.9581963,25.3048398 17.6427009,24.6225977 17.6427009,23.7839629 C17.6427009,23.115041 17.2070187,22.5460215 16.6037944,22.3429473 L16.6037944,21.680625 L18.7141075,21.680625 C18.9830374,21.680625 19.2011215,21.4633223 19.2011215,21.1952207 C19.2011215,20.9271191 18.9830374,20.7098164 18.7141075,20.7098164 Z M16.6687336,23.7839023 C16.6687336,24.0872422 16.4211262,24.3340312 16.1167804,24.3340312 C15.8124346,24.3340312 15.5648271,24.0872422 15.5648271,23.7839023 C15.5648271,23.4805625 15.8124346,23.2337734 16.1167804,23.2337734 C16.4211262,23.233834 16.6687336,23.4805625 16.6687336,23.7839023 Z" id="Shape"></path>
                    <path d="M24.4281542,17.6033379 L23.8762009,17.6033379 L23.8762009,9.8047793 C23.8762009,8.90789844 23.6937757,8.03384375 23.3560794,7.22863086 C23.3562009,7.22445313 23.3567477,1.00314063 23.3567477,1.00314063 C23.3568084,0.449984375 22.9053318,0 22.3503411,0 L20.2724673,0 C19.7174766,0 19.266,0.449984375 19.266,1.00314063 L19.266,3.10732617 C19.2551262,3.10714453 17.1232477,3.10647852 17.1232477,3.10647852 L17.1232477,2.03861328 C17.1232477,0.9145 16.2056542,0 15.0778738,0 L10.9221869,0 C9.79434579,0 8.87681308,0.914560547 8.87681308,2.03861328 L8.87681308,3.10647852 L6.7665,3.10647852 C6.75556542,3.10647852 6.73406075,1.00314063 6.73406075,1.00314063 C6.734,0.449984375 6.28252336,0 5.72753271,0 L3.64965888,0 C3.09466822,0 2.64319159,0.449984375 2.64319159,1.00314063 L2.64319159,7.21609766 C2.30616355,8.0337832 2.12373832,8.90789844 2.12373832,9.8047793 L2.12373832,17.6033379 L1.57178505,17.6033379 C0.730369159,17.6033379 0.045864486,18.2855801 0.045864486,19.1242148 L0.045864486,27.4081172 C0.045864486,28.246752 0.730369159,28.9289941 1.57178505,28.9289941 L2.17063551,28.9289941 C2.39892523,30.1072363 3.44086916,31 4.68862617,31 L21.3114346,31 C22.5591916,31 23.6010748,30.1072363 23.8293037,28.9289941 L24.4281542,28.9289941 C25.2695701,28.9289941 25.9540748,28.246752 25.9540748,27.4081172 L25.9540748,19.1242148 C25.9540748,18.2855801 25.2695701,17.6033379 24.4281542,17.6033379 Z M2.12373832,27.9582461 L1.57178505,27.9582461 C1.26743925,27.9582461 1.01983178,27.711457 1.01983178,27.4081172 L1.01983178,21.6805645 L2.12373832,21.6805645 L2.12373832,27.9582461 Z M1.01989252,20.7098164 L1.01989252,19.1242148 C1.01989252,18.820875 1.2675,18.5740859 1.57184579,18.5740859 L2.12379907,18.5740859 L2.12379907,20.7098164 L1.01989252,20.7098164 Z M20.2724673,0.970808594 L22.3503411,0.970808594 C22.3682617,0.970808594 22.3827804,0.985279297 22.3827804,1.00314063 L22.3827804,5.59961719 C21.9053645,5.00867969 21.3254673,4.49524219 20.6605234,4.08921484 C20.571285,3.85495898 20.4256121,3.6483125 20.240028,3.4855625 L20.240028,1.00314063 C20.240028,0.985279297 20.2545467,0.970808594 20.2724673,0.970808594 Z M9.85078037,2.03861328 C9.85078037,1.44979492 10.3314159,0.970748047 10.9221869,0.970748047 L15.0778738,0.970748047 C15.6686449,0.970748047 16.1492804,1.44979492 16.1492804,2.03861328 L16.1492804,3.10647852 L9.85078037,3.10647852 L9.85078037,2.03861328 Z M6.7665,4.07722656 L19.2336215,4.07722656 C19.5379673,4.07722656 19.7855748,4.32401563 19.7855748,4.62735547 L19.7855748,9.8047793 C19.7855748,12.3920078 17.673743,14.4968594 15.0779346,14.4968594 L14.5259813,14.4968594 L14.5259813,12.9112578 C14.5259813,12.6432168 14.3079579,12.4258535 14.0389673,12.4258535 L11.9610935,12.4258535 C11.6921636,12.4258535 11.4740794,12.6431563 11.4740794,12.9112578 L11.4740794,14.4968594 L10.9221262,14.4968594 C8.32631776,14.4968594 6.21448598,12.3920078 6.21448598,9.8047793 L6.21448598,4.62735547 C6.21454673,4.32401563 6.46215421,4.07722656 6.7665,4.07722656 Z M13.5519533,14.9815977 C13.551771,15.2857852 13.304285,15.532332 13,15.532332 C12.6956542,15.532332 12.4480467,15.285543 12.4480467,14.9822031 L12.4480467,13.3966016 L13.5519533,13.3966016 L13.5519533,14.9815977 Z M3.64965888,0.970808594 L5.72753271,0.970808594 C5.74545327,0.970808594 5.75997196,0.985279297 5.75997196,1.00314063 L5.75997196,3.48562305 C5.57438785,3.6483125 5.42871495,3.85495898 5.33947664,4.08927539 C4.67447196,4.49530273 4.09457477,5.00874023 3.61721963,5.59967773 L3.61721963,1.00314063 C3.61721963,0.985279297 3.63173832,0.970808594 3.64965888,0.970808594 Z M21.3113738,30.029252 L4.68862617,30.029252 C3.81142991,30.029252 3.09776636,29.3179473 3.09776636,28.4436504 L3.09776636,9.8047793 C3.09776636,8.06357227 3.90164019,6.42305469 5.24057944,5.34459375 L5.24057944,9.8047793 C5.24057944,12.9273027 7.78930841,15.4676074 10.9221869,15.4676074 L11.5542056,15.4676074 C11.7579533,16.0688379 12.3288598,16.5030801 13,16.5030801 C13.6711402,16.5030801 14.2420467,16.0688379 14.4457944,15.4676074 L15.0778738,15.4676074 C18.2107523,15.4676074 20.7594813,12.9273027 20.7594813,9.8047793 L20.7594813,5.34459375 C22.0984206,6.42305469 22.9022336,8.06357227 22.9022336,9.8047793 L22.9022336,28.4436504 C22.9022336,29.3179473 22.1885701,30.029252 21.3113738,30.029252 Z M24.4281542,27.9582461 L23.8762009,27.9582461 L23.8762009,21.6805645 L24.9800467,21.6805645 L24.9800467,27.4081172 C24.9801075,27.711457 24.7325,27.9582461 24.4281542,27.9582461 Z M23.8762617,20.7098164 L23.8762617,18.5741465 L24.428215,18.5741465 C24.7325607,18.5741465 24.9801682,18.8209355 24.9801682,19.1242754 L24.9801682,20.7098164 L23.8762617,20.7098164 Z" id="Shape"></path>
                </g>
            </g>
        </g>
    </g>
</svg>