<?xml version="1.0" encoding="UTF-8"?>
<svg width="48px" height="49px" viewBox="0 0 48 49" version="1.1" xmlns="http://www.w3.org/2000/svg" xmlns:xlink="http://www.w3.org/1999/xlink">
    <!-- Generator: Sketch Beta 42 (36780) - http://www.bohemiancoding.com/sketch -->
    <title>search</title>
    <desc>Created with Sketch Beta.</desc>
    <defs></defs>
    <g id="Page-1" stroke="none" stroke-width="1" fill="none" fill-rule="evenodd">
        <g id="Travel-Page---Add-Trip" transform="translate(-473.000000, -512.000000)" fill-rule="nonzero">
            <g id="search" transform="translate(473.000000, 512.000000)">
                <g id="Layer_1">
                    <path d="M10.6378125,29.6113125 L8.967,35.9786328 L2.86021875,36.1105117 C1.0351875,32.654959 0,28.7013672 0,24.5 C0,20.4373066 0.967875,16.6061191 2.6835,13.2326797 L2.6848125,13.2326797 L8.1215625,14.2501953 L10.5031875,19.7669062 C10.0047187,21.2504004 9.73303125,22.8429004 9.73303125,24.5 C9.73321875,26.2984531 10.0523437,28.0215879 10.6378125,29.6113125 Z" id="Shape" fill="#FBBB00"></path>
                    <path d="M47.5806562,19.9230938 C47.8562812,21.4051523 48,22.9357324 48,24.5 C48,26.2540469 47.8193437,27.9650273 47.4751875,29.6154277 C46.306875,35.2315742 43.2540937,40.1355938 39.025125,43.6059805 L39.0238125,43.6046406 L32.1759375,43.2479551 L31.20675,37.0717539 C34.012875,35.3917813 36.205875,32.7627207 37.3610625,29.6154277 L24.527625,29.6154277 L24.527625,19.9230938 L37.5482812,19.9230938 L47.5806562,19.9230938 L47.5806562,19.9230938 Z" id="Shape" fill="#518EF8"></path>
                    <path d="M39.0237188,43.6046406 L39.0250313,43.6059805 C34.912125,46.9807598 29.6874375,49 24,49 C14.8602188,49 6.913875,43.785041 2.86021875,36.1106074 L10.6378125,29.6114082 C12.6645938,35.1332871 17.882625,39.0641016 24,39.0641016 C26.6294063,39.0641016 29.0927813,38.3384805 31.2065625,37.0717539 L39.0237188,43.6046406 Z" id="Shape" fill="#28B446"></path>
                    <path d="M39.319125,5.64035938 L31.5441563,12.1382188 C29.3565,10.742293 26.7705,9.93589844 24,9.93589844 C17.7441563,9.93589844 12.4285313,14.0470176 10.5032813,19.7669063 L2.6848125,13.2326797 L2.6835,13.2326797 C6.6778125,5.37114648 14.724375,0 24,0 C29.8232813,0 35.162625,2.11752734 39.319125,5.64035938 Z" id="Shape" fill="#F14336"></path>
                </g>
            </g>
        </g>
    </g>
</svg>