<?xml version="1.0" encoding="UTF-8"?>
<svg width="34px" height="28px" viewBox="0 0 34 28" version="1.1" xmlns="http://www.w3.org/2000/svg" xmlns:xlink="http://www.w3.org/1999/xlink">
    <!-- Generator: Sketch Beta 44 (41386) - http://www.bohemiancoding.com/sketch -->
    <title>shopping-cart</title>
    <desc>Created with Sketch Beta.</desc>
    <defs></defs>
    <g id="Page-1" stroke="none" stroke-width="1" fill="none" fill-rule="evenodd">
        <g id="Homepage" transform="translate(-99.000000, -942.000000)" fill-rule="nonzero" fill="#FFFFFF">
            <g id="shopping-cart" transform="translate(99.500000, 942.000000)">
                <path d="M31.2695718,0.0434516758 L28.4899674,0.0434516758 C27.5690785,0.0434516758 26.7861015,0.644022889 26.5111247,1.47390429 C25.2835334,1.65904622 24.9088849,2.43427102 24.7250458,3.1208987 L24.0601766,5.60207407 L0.694901088,5.60207407 C0.478880463,5.60207407 0.275107087,5.70252757 0.14357945,5.87392391 C0.0120518141,6.04532025 -0.0322467459,6.26811595 0.0236476137,6.4767752 L0.768384582,9.25637955 C0.849815758,9.56015041 1.12505313,9.77141546 1.43957291,9.77141546 L2.02366245,9.77141546 L3.74778847,16.2052601 C3.74935195,16.2113186 3.75163202,16.2169862 3.75332579,16.2229144 C3.75645274,16.2332725 3.75951456,16.2437608 3.76309753,16.2539234 C3.76707137,16.2653238 3.77150123,16.2763333 3.77599623,16.2872776 C3.77925347,16.2952904 3.78225014,16.3033033 3.78576797,16.3111858 C3.8033571,16.3504682 3.82433377,16.3873403 3.84824197,16.4217368 C3.84954487,16.4234957 3.85091291,16.4251895 3.85215066,16.4269484 C3.86302987,16.4423877 3.87456052,16.4572408 3.88654719,16.4715727 C3.88986958,16.4755465 3.89338741,16.4792598 3.8967098,16.4831685 C3.9070027,16.4948945 3.91768647,16.5062949 3.92869597,16.5173044 C3.93345155,16.5219297 3.93820713,16.5266201 3.94302786,16.5311151 C3.95325561,16.5407566 3.96380909,16.5500072 3.97455801,16.558932 C3.98022562,16.5637528 3.98602352,16.5685735 3.99195171,16.5731988 C4.00263548,16.5815373 4.01371012,16.5894199 4.02491505,16.5970418 C4.03110382,16.6014065 4.0371623,16.6059667 4.0435465,16.6099405 C4.06002817,16.620494 4.07690071,16.6304612 4.09422926,16.6395815 C4.10165579,16.6436204 4.10960347,16.6468777 4.11716028,16.6506561 C4.12836521,16.655998 4.13957014,16.6613399 4.15090536,16.6662257 C4.15917877,16.6696784 4.16751732,16.6727402 4.17585588,16.6758672 C4.18797284,16.6802971 4.20002465,16.6845315 4.2122719,16.6884402 C4.21976357,16.6907202 4.22738552,16.6930003 4.23500748,16.6951501 C4.25051198,16.6993845 4.26608162,16.7030326 4.28197699,16.7062247 C4.28673257,16.7072019 4.29148815,16.7083745 4.29624373,16.7092214 C4.31943533,16.7134558 4.34282236,16.7165176 4.36653512,16.7183417 L20.7270357,18.0410446 L20.3361009,19.4997701 L5.53614739,19.4997701 C5.15237854,19.4997701 4.84124631,19.8109023 4.84124631,20.1946712 C4.84124631,20.57844 5.1523134,20.8895723 5.53614739,20.8895723 L7.45981236,20.8895723 L7.07291656,22.3339008 C5.80180846,22.5890735 4.84131145,23.7137358 4.84131145,25.0588485 C4.84131145,26.5915136 6.08818563,27.8384529 7.62078551,27.8384529 C7.62306559,27.8384529 7.62521537,27.8382574 7.62756059,27.8382574 L11.095291,27.8382574 C11.4790598,27.8382574 11.790192,27.5271903 11.790192,27.1433563 C11.790192,26.7596526 11.4791249,26.4484553 11.095291,26.4484553 L10.0264579,26.4484553 C10.2637158,26.039345 10.4003899,25.5648293 10.4003899,25.0588485 C10.4003899,23.8293029 9.59760875,22.7844432 8.488907,22.4189149 L8.89866868,20.8895723 L17.5069864,20.8895723 L17.916748,22.4189801 C16.8082417,22.7845735 16.0054606,23.8294332 16.0054606,25.0588485 C16.0054606,26.5915136 17.2523348,27.8384529 18.785065,27.8384529 C18.7872147,27.8384529 18.7894297,27.8382574 18.7917097,27.8382574 L25.7338153,27.8382574 C26.1175841,27.8382574 26.4287163,27.5271903 26.4287163,27.1433563 C26.4287163,26.7596526 26.1176492,26.4484553 25.7338153,26.4484553 L21.1907373,26.4484553 C21.4280604,26.0392799 21.5646042,25.5648293 21.5646042,25.0588485 C21.5646042,23.7137358 20.6039769,22.5889432 19.3327385,22.3338356 L18.9458427,20.8896374 L20.8672927,20.8896374 C20.8682699,20.8896374 20.8690516,20.8898329 20.8699637,20.8898329 C20.8922432,20.8898329 20.9145879,20.8883997 20.9365418,20.8862499 C20.9416882,20.8857939 20.9467695,20.884947 20.951916,20.8843607 C20.9678114,20.8824715 20.9835113,20.8801263 20.9990809,20.8771296 C21.0068332,20.8756964 21.0146506,20.8740026 21.0222074,20.8723089 C21.0347152,20.8694425 21.0470276,20.8662504 21.0594051,20.8627326 C21.0681346,20.8602571 21.0769291,20.8578467 21.0855283,20.8550455 C21.0966029,20.8514625 21.107417,20.8472932 21.118231,20.8431239 C21.1269604,20.8397364 21.1359504,20.8366746 21.1445496,20.8329613 C21.1620084,20.8254697 21.1790764,20.8171311 21.1958838,20.8082714 C21.2045481,20.8036461 21.2129518,20.7983042 21.2215509,20.7932881 C21.2309318,20.7878159 21.2403126,20.7822786 21.2494329,20.7764155 C21.2573806,20.7712039 21.2651329,20.7656666 21.2729503,20.7600641 C21.2823963,20.7533542 21.2916469,20.746514 21.300702,20.7392829 C21.3076725,20.7338107 21.3143173,20.7282734 21.3210924,20.7226058 C21.3308641,20.7142672 21.3403101,20.7055378 21.349691,20.6965478 C21.355098,20.6913362 21.3607005,20.6862549 21.3659772,20.6807827 C21.3768564,20.669643 21.3872796,20.657982 21.3975074,20.6460605 C21.4007646,20.6422169 21.4042173,20.6386991 21.4074746,20.6347904 C21.420699,20.6187648 21.4332068,20.6020225 21.4449981,20.5846288 C21.4477341,20.5805898 21.4500142,20.5762903 21.4526852,20.5721861 C21.4610889,20.559092 21.4692971,20.5459979 21.4768539,20.5323174 C21.4816747,20.5237834 21.4859742,20.5148586 21.4902738,20.5061292 C21.4950294,20.4966831 21.4997849,20.4873023 21.5040194,20.4776608 C21.5087749,20.4670422 21.5130745,20.4560327 21.5173089,20.4451535 C21.520501,20.4370104 21.5234977,20.428737 21.5263641,20.4203984 C21.5305334,20.4084769 21.5343118,20.3964251 21.5377644,20.384243 C21.5386765,20.3810509 21.5398491,20.3779891 21.5407611,20.374797 L22.2826317,17.6060718 C22.2832832,17.6039872 22.2838043,17.6017722 22.2843906,17.5996225 L24.3818623,9.77167604 L24.9657564,9.77167604 C25.2802762,9.77167604 25.5555136,9.56041099 25.6369447,9.25664013 L26.3818771,6.47716607 C26.4378366,6.26850682 26.3934729,6.04564598 26.2619453,5.87431478 C26.1304177,5.70291844 25.9267094,5.6023998 25.7106237,5.6023998 L25.4989026,5.6023998 L26.0674225,3.48088964 C26.148984,3.17633704 26.2043572,2.96995787 26.5452606,2.87764749 C26.8469469,3.65788845 27.6046477,4.21292335 28.4899674,4.21292335 L31.2695718,4.21292335 C32.4190543,4.21292335 33.354275,3.27776772 33.354275,2.12835037 C33.354275,0.978607307 32.4189891,0.0434516758 31.2695718,0.0434516758 Z M9.01052254,25.0588485 C9.01052254,25.8241061 8.38890951,26.4466312 7.62417305,26.4484553 L7.62065522,26.4484553 C7.62006892,26.4484553 7.6196129,26.4485204 7.61915689,26.4485204 C6.85363868,26.4475432 6.23104848,25.8246924 6.23104848,25.0588485 C6.23104848,24.2930046 6.85383412,23.6699584 7.61954776,23.6692418 C7.62013406,23.6692418 7.62059008,23.6693069 7.62104609,23.6693069 C7.62150211,23.6693069 7.6222187,23.6692418 7.62273986,23.6692418 C8.38812777,23.6702841 9.01052254,24.2931349 9.01052254,25.0588485 Z M20.174802,25.0588485 C20.174802,25.8241061 19.5532541,26.4466312 18.7883873,26.4484553 L18.7849347,26.4484553 C18.7843484,26.4484553 18.7838272,26.4485204 18.783306,26.4485204 C18.0177878,26.4475432 17.3951976,25.8246924 17.3951976,25.0588485 C17.3951976,24.2932 18.0175273,23.6704144 18.78285,23.6692418 C18.7834363,23.6692418 18.7839575,23.6693069 18.7843484,23.6693069 C18.7849998,23.6693069 18.785521,23.6692418 18.7860421,23.6692418 C19.5520163,23.6698281 20.174802,24.2929394 20.174802,25.0588485 Z M22.5705723,11.1613479 L14.7654918,11.1613479 C14.3817881,11.1613479 14.0705907,11.4724802 14.0705907,11.856249 C14.0705907,12.2400179 14.3817881,12.5511501 14.7654918,12.5511501 L22.198269,12.5511501 L21.8259005,13.940822 L18.1900962,13.940822 C17.8063925,13.940822 17.4951951,14.2518891 17.4951951,14.6357231 C17.4951951,15.0195571 17.8063274,15.3306242 18.1900962,15.3306242 L21.453532,15.3306242 L21.0928896,16.6763884 L4.96365365,15.3724472 L3.4627142,9.77154575 L22.9431363,9.77154575 L22.5705723,11.1613479 Z M24.4325451,8.38174357 L1.9728494,8.38174357 L1.60054606,6.99194139 L24.5912381,6.99194139 C24.592085,6.99194139 24.592997,6.99213683 24.5937788,6.99213683 C24.5951468,6.99213683 24.5965149,6.99194139 24.5978829,6.99194139 L24.8049787,6.99194139 L24.4325451,8.38174357 Z M31.2695718,2.82292574 L28.4899674,2.82292574 C28.1067849,2.82292574 27.7952618,2.51127234 27.7952618,2.12808979 C27.7952618,1.74490725 28.10685,1.43318871 28.4899674,1.43318871 L31.2695718,1.43318871 C31.6528195,1.43318871 31.964538,1.74490725 31.964538,2.12808979 C31.9644729,2.51127234 31.6527543,2.82292574 31.2695718,2.82292574 Z" id="Shape"></path>
                <path d="M12.055788,12.551085 L12.4727156,12.551085 C12.8564844,12.551085 13.1676167,12.2400179 13.1676167,11.8561839 C13.1676167,11.4724802 12.8565496,11.1612828 12.4727156,11.1612828 L12.055788,11.1612828 C11.6720843,11.1612828 11.3608869,11.472415 11.3608869,11.8561839 C11.360952,12.240083 11.6720843,12.551085 12.055788,12.551085 Z" id="Shape"></path>
            </g>
        </g>
    </g>
</svg>